<?xml version="1.0" encoding="utf-8"?>
<!-- Generator: Adobe Illustrator 14.0.0, SVG Export Plug-In . SVG Version: 6.00 Build 43363)  -->
<!DOCTYPE svg PUBLIC "-//W3C//DTD SVG 1.1//EN" "http://www.w3.org/Graphics/SVG/1.1/DTD/svg11.dtd">
<svg version="1.1" id="Layer_1" xmlns="http://www.w3.org/2000/svg" xmlns:xlink="http://www.w3.org/1999/xlink" x="0px" y="0px"
	 width="80.167px" height="65px" viewBox="0 0 80.167 65" enable-background="new 0 0 80.167 65" xml:space="preserve">
<path fill="#F29E01" d="M79.215,26.198c-0.197-0.354-0.566-0.573-0.971-0.573h-2.241v-4.621c0-0.611-0.493-1.109-1.104-1.109
	s-1.107,0.498-1.107,1.109v4.621h-2.215v-4.621c0-0.611-0.496-1.109-1.105-1.109c-0.613,0-1.109,0.498-1.109,1.109v4.621H67.72
	c-0.401,0-0.774,0.219-0.968,0.573c-0.197,0.354-0.182,0.787,0.035,1.129l4.887,7.687v7.523c0,0.004-0.002,0.006-0.002,0.01v5.551
	c0,6.971-2.924,10.504-8.691,10.504H21.959c-3.129,0-5.678-1.547-5.678-4.68c0-3.131,2.549-4.678,5.678-4.678h3.467
	c0.022,0,0.042-0.012,0.064-0.012v0.006c2.674,0,4.928-2.09,4.928-4.764c0-0.893-0.253-1.699-0.675-2.389h23.647
	c2.393,0,4.336-1.943,4.336-4.334V8.515c0-2.39-1.941-4.334-4.334-4.334h-6.941c-0.001,0-0.002,0-0.002,0H5.756
	c-2.391,0-4.334,1.944-4.334,4.334L1.42,37.752c0,2.391,1.943,4.334,4.336,4.334h18.932h0.002h1.096
	c1.438,0.066,2.432,1.023,2.432,2.389c0,1.459-1.265,2.564-2.725,2.566c-0.022-0.002-0.043-0.014-0.066-0.014h-3.467
	c-4.352,0-7.893,2.543-7.893,6.895c0,4.354,3.541,6.896,7.893,6.896H62.98c7.035,0,10.91-4.518,10.91-12.721v-5.551
	c0-0.004-0.002-0.006-0.002-0.01v-6.896c0.01-0.014,0.022-0.023,0.031-0.037l5.258-8.276C79.395,26.985,79.41,26.553,79.215,26.198z
	 M3.637,37.752L3.639,8.516c0-1.167,0.951-2.118,2.117-2.118h40.693c0.001,0,0.002,0,0.002,0h6.941c1.168,0,2.121,0.951,2.121,2.118
	v29.237c0,1.168-0.953,2.119-2.123,2.119H24.694c-0.002,0-0.003,0-0.005,0H5.756C4.588,39.871,3.637,38.922,3.637,37.752z
	 M72.982,32.944L69.74,27.84h6.484L72.982,32.944z"/>
</svg>
