<?xml version="1.0" encoding="utf-8"?>
<!-- Generator: Adobe Illustrator 14.0.0, SVG Export Plug-In . SVG Version: 6.00 Build 43363)  -->
<!DOCTYPE svg PUBLIC "-//W3C//DTD SVG 1.1//EN" "http://www.w3.org/Graphics/SVG/1.1/DTD/svg11.dtd">
<svg version="1.1" id="Layer_1" xmlns="http://www.w3.org/2000/svg" xmlns:xlink="http://www.w3.org/1999/xlink" x="0px" y="0px"
	 width="65px" height="65px" viewBox="0 0 65 65" enable-background="new 0 0 65 65" xml:space="preserve">
<g>
	<path fill="#F29E01" d="M53.262,38.344H38.969c-0.613,0-1.109,0.496-1.109,1.109c0,0.611,0.496,1.107,1.109,1.107h14.293
		c0.611,0,1.107-0.496,1.107-1.107C54.369,38.84,53.873,38.344,53.262,38.344z"/>
	<path fill="#F29E01" d="M53.262,43.391H38.969c-0.613,0-1.109,0.496-1.109,1.107c0,0.613,0.496,1.107,1.109,1.107h14.293
		c0.611,0,1.107-0.494,1.107-1.107C54.369,43.887,53.873,43.391,53.262,43.391z"/>
	<path fill="#F29E01" d="M22.779,42.76c-2.523,0-4.578,2.053-4.578,4.576s2.055,4.578,4.578,4.578c2.521,0,4.576-2.055,4.576-4.578
		S25.301,42.76,22.779,42.76z M22.779,49.695c-1.303,0-2.361-1.059-2.361-2.359c0-1.303,1.058-2.359,2.361-2.359
		c1.301,0,2.359,1.057,2.359,2.359C25.139,48.637,24.08,49.695,22.779,49.695z"/>
	<path fill="#F29E01" d="M64.664,31.83c-0.004-0.332-0.008-0.67-0.008-1.016V13.215c0-4.387-3.57-7.957-7.955-7.957l-24.201,0
		l-24.201,0c-4.385,0-7.956,3.57-7.956,7.957v17.599c0,0.346-0.003,0.684-0.007,1.016c-0.024,2.409-0.045,4.491,1.267,5.817
		c0.701,0.707,1.678,1.061,2.955,1.107v17.578c0,2.83,1.389,5.314,3.711,6.648c0,0,0.001,0.002,0.001,0.002
		C9.436,63.648,10.805,64,12.229,64h30.562H53.23c4.389,0,7.957-3.57,7.957-7.957V38.699c0.922-0.141,1.65-0.488,2.209-1.053
		C64.709,36.32,64.688,34.238,64.664,31.83z M58.969,56.043c0,3.166-2.572,5.74-5.738,5.74H42.791H12.229
		c-1.053,0-2.012-0.244-2.856-0.727c-1.651-0.945-2.598-2.668-2.598-4.725V37.609c0-3.158,2.295-5.451,5.451-5.451l27.278,0.002
		c0,0,0,0,0.002,0H53.23c3.166,0,5.738,2.574,5.738,5.738V56.043z M61.822,36.088c-0.18,0.18-0.441,0.301-0.771,0.377
		c-0.678-3.705-3.922-6.522-7.82-6.522H39.506H13.031l0.018-1.585l23.855-5.376c0,0,0.002,0,0.004,0l20.064-4.523
		c0.598-0.135,0.975-0.728,0.838-1.324c-0.133-0.598-0.729-0.972-1.322-0.837l-20.061,4.521c-0.004,0.001-0.006-0.001-0.008,0
		l-24.711,5.567c-0.502,0.115-0.859,0.557-0.865,1.071l-0.028,2.61c-3.307,0.567-5.753,3.114-6.183,6.479
		c-0.685-0.025-1.168-0.172-1.456-0.459c-0.662-0.67-0.644-2.402-0.625-4.236c0.002-0.338,0.008-0.685,0.008-1.038V13.215
		c0-3.165,2.574-5.739,5.739-5.739h10.64h27.121h10.641c3.164,0,5.74,2.574,5.74,5.739v17.599c0,0.354,0.004,0.7,0.006,1.038
		C62.467,33.686,62.484,35.418,61.822,36.088z"/>
	<path fill="#F29E01" d="M22.779,36.137c-6.176,0-11.199,5.023-11.199,11.199s5.023,11.199,11.199,11.199
		c6.174,0,11.199-5.023,11.199-11.199S28.953,36.137,22.779,36.137z M22.779,56.32c-4.953,0-8.984-4.031-8.984-8.984
		s4.031-8.982,8.984-8.982s8.983,4.029,8.983,8.982S27.732,56.32,22.779,56.32z"/>
</g>
</svg>
