<?xml version="1.0" encoding="utf-8"?>
<!-- Generator: Adobe Illustrator 14.0.0, SVG Export Plug-In . SVG Version: 6.00 Build 43363)  -->
<!DOCTYPE svg PUBLIC "-//W3C//DTD SVG 1.1//EN" "http://www.w3.org/Graphics/SVG/1.1/DTD/svg11.dtd">
<svg version="1.1" id="Layer_1" xmlns="http://www.w3.org/2000/svg" xmlns:xlink="http://www.w3.org/1999/xlink" x="0px" y="0px"
	 width="65px" height="65px" viewBox="0 0 65 65" enable-background="new 0 0 65 65" xml:space="preserve">
<g>
	<path fill="#F29E01" d="M53.99,22.146h-19.8L50.318,4.755c0.414-0.448,0.389-1.151-0.061-1.568
		c-0.447-0.415-1.148-0.389-1.566,0.06L32.057,21.188L15.424,3.247c-0.42-0.449-1.121-0.476-1.568-0.06
		c-0.449,0.417-0.475,1.12-0.061,1.568l16.126,17.391H14.094c0,0,0,0,0,0l0,0h-2.777c-4.618,0-8.096,3.479-8.096,8.095v26.664
		c0,4.616,3.478,8.096,8.096,8.096h29.195l0,0H53.99c4.635,0,8.406-3.771,8.406-8.403v-26.05
		C62.396,25.914,58.625,22.146,53.99,22.146z M60.18,56.597c0,3.413-2.775,6.188-6.189,6.188H40.512l0,0H11.317
		c-3.409,0-5.879-2.473-5.879-5.88V30.24c0-3.406,2.47-5.88,5.879-5.88h2.777l0,0c0,0,0,0,0,0H53.99
		c3.414,0,6.189,2.774,6.189,6.187V56.597z"/>
	<circle fill="#F29E01" cx="54.809" cy="32.935" r="1.796"/>
	<circle fill="#F29E01" cx="54.809" cy="39.709" r="1.797"/>
	<circle fill="#F29E01" cx="54.809" cy="46.38" r="1.797"/>
	<circle fill="#F29E01" cx="54.809" cy="53.051" r="1.797"/>
	<path fill="#F29E01" d="M44.924,27.311H12.922c-2.428,0-4.402,1.975-4.402,4.401v4.755H8.517v18.834c0,2.426,1.977,4.4,4.405,4.4
		h29.443l0,0h2.559c2.428,0,4.4-1.975,4.4-4.4V35.308v-3.596C49.324,29.285,47.352,27.311,44.924,27.311z M10.734,31.712
		c0-1.205,0.981-2.185,2.188-2.185h32.002c1.205,0,2.186,0.979,2.186,2.185v3.596c0,0.002,0,0.003,0,0.005v1.335L44.045,45.4
		l-2.66-9.881c-0.129-0.478-0.561-0.812-1.055-0.818c-0.488,0.002-0.936,0.314-1.078,0.79L35.57,47.816l-2.82-9.053
		c-0.143-0.461-0.57-0.775-1.051-0.776h-0.008c-0.48,0-0.906,0.309-1.055,0.768l-3.393,10.558l-3.4-14.576
		c-0.115-0.483-0.535-0.834-1.032-0.854c-0.502-0.017-0.947,0.288-1.101,0.761l-4.283,13.089l-2.729-10.157
		c-0.123-0.455-0.521-0.785-0.99-0.817c-0.463-0.041-0.912,0.232-1.098,0.666l-1.875,4.358v-5.314h-0.002V31.712z M44.924,57.485
		h-2.559l0,0H12.922c-1.207,0-2.186-0.979-2.186-2.185v-8.012c0.037-0.056,0.085-0.1,0.113-0.163l2.537-5.897l2.868,10.673
		c0.127,0.474,0.549,0.809,1.041,0.82c0.517,0.011,0.929-0.298,1.082-0.762l4.209-12.862l3.408,14.616
		c0.115,0.486,0.537,0.835,1.035,0.855h0.045c0.479,0,0.906-0.309,1.055-0.77l3.545-11.033l2.861,9.178
		c0.145,0.465,0.555,0.766,1.064,0.777c0.486-0.003,0.914-0.323,1.055-0.79l3.604-12.065l2.578,9.573
		c0.127,0.471,0.545,0.802,1.029,0.818c0.488,0.019,0.926-0.281,1.088-0.74l2.156-6.166v11.949
		C47.109,56.506,46.129,57.485,44.924,57.485z"/>
</g>
</svg>
